<svg width="116" height="30" viewBox="0 0 116 30" fill="none" xmlns="http://www.w3.org/2000/svg">
<path d="M0.05 11.5C0.05 9.44 0.51 7.6 1.43 5.98C2.37 4.34 3.64 3.07 5.24 2.17C6.86 1.25 8.67 0.789999 10.67 0.789999C13.01 0.789999 15.06 1.39 16.82 2.59C18.58 3.79 19.81 5.45 20.51 7.57H15.68C15.2 6.57 14.52 5.82 13.64 5.32C12.78 4.82 11.78 4.57 10.64 4.57C9.42 4.57 8.33 4.86 7.37 5.44C6.43 6 5.69 6.8 5.15 7.84C4.63 8.88 4.37 10.1 4.37 11.5C4.37 12.88 4.63 14.1 5.15 15.16C5.69 16.2 6.43 17.01 7.37 17.59C8.33 18.15 9.42 18.43 10.64 18.43C11.78 18.43 12.78 18.18 13.64 17.68C14.52 17.16 15.2 16.4 15.68 15.4H20.51C19.81 17.54 18.58 19.21 16.82 20.41C15.08 21.59 13.03 22.18 10.67 22.18C8.67 22.18 6.86 21.73 5.24 20.83C3.64 19.91 2.37 18.64 1.43 17.02C0.51 15.4 0.05 13.56 0.05 11.5ZM23.0173 13.63C23.0173 11.95 23.3473 10.46 24.0073 9.16C24.6873 7.86 25.5973 6.86 26.7373 6.16C27.8973 5.46 29.1873 5.11 30.6073 5.11C31.8473 5.11 32.9273 5.36 33.8473 5.86C34.7873 6.36 35.5373 6.99 36.0973 7.75V5.38H40.3273V22H36.0973V19.57C35.5573 20.35 34.8073 21 33.8473 21.52C32.9073 22.02 31.8173 22.27 30.5773 22.27C29.1773 22.27 27.8973 21.91 26.7373 21.19C25.5973 20.47 24.6873 19.46 24.0073 18.16C23.3473 16.84 23.0173 15.33 23.0173 13.63ZM36.0973 13.69C36.0973 12.67 35.8973 11.8 35.4973 11.08C35.0973 10.34 34.5573 9.78 33.8773 9.4C33.1973 9 32.4673 8.8 31.6873 8.8C30.9073 8.8 30.1873 8.99 29.5273 9.37C28.8673 9.75 28.3273 10.31 27.9073 11.05C27.5073 11.77 27.3073 12.63 27.3073 13.63C27.3073 14.63 27.5073 15.51 27.9073 16.27C28.3273 17.01 28.8673 17.58 29.5273 17.98C30.2073 18.38 30.9273 18.58 31.6873 18.58C32.4673 18.58 33.1973 18.39 33.8773 18.01C34.5573 17.61 35.0973 17.05 35.4973 16.33C35.8973 15.59 36.0973 14.71 36.0973 13.69ZM48.6294 7.96C49.1694 7.08 49.8694 6.39 50.7294 5.89C51.6094 5.39 52.6094 5.14 53.7294 5.14V9.55H52.6194C51.2994 9.55 50.2994 9.86 49.6194 10.48C48.9594 11.1 48.6294 12.18 48.6294 13.72V22H44.4294V5.38H48.6294V7.96ZM69.3983 18.01H61.0583L59.6783 22H55.2683L62.7983 1.03H67.6883L75.2183 22H70.7783L69.3983 18.01ZM68.2583 14.65L65.2283 5.89L62.1983 14.65H68.2583ZM82.2329 7.78C82.7729 7.02 83.5129 6.39 84.4529 5.89C85.4129 5.37 86.5029 5.11 87.7229 5.11C89.1429 5.11 90.4229 5.46 91.5629 6.16C92.7229 6.86 93.6329 7.86 94.2929 9.16C94.9729 10.44 95.3129 11.93 95.3129 13.63C95.3129 15.33 94.9729 16.84 94.2929 18.16C93.6329 19.46 92.7229 20.47 91.5629 21.19C90.4229 21.91 89.1429 22.27 87.7229 22.27C86.5029 22.27 85.4229 22.02 84.4829 21.52C83.5629 21.02 82.8129 20.39 82.2329 19.63V29.92H78.0329V5.38H82.2329V7.78ZM91.0229 13.63C91.0229 12.63 90.8129 11.77 90.3929 11.05C89.9929 10.31 89.4529 9.75 88.7729 9.37C88.1129 8.99 87.3929 8.8 86.6129 8.8C85.8529 8.8 85.1329 9 84.4529 9.4C83.7929 9.78 83.2529 10.34 82.8329 11.08C82.4329 11.82 82.2329 12.69 82.2329 13.69C82.2329 14.69 82.4329 15.56 82.8329 16.3C83.2529 17.04 83.7929 17.61 84.4529 18.01C85.1329 18.39 85.8529 18.58 86.6129 18.58C87.3929 18.58 88.1129 18.38 88.7729 17.98C89.4529 17.58 89.9929 17.01 90.3929 16.27C90.8129 15.53 91.0229 14.65 91.0229 13.63ZM102.565 7.78C103.105 7.02 103.845 6.39 104.785 5.89C105.745 5.37 106.835 5.11 108.055 5.11C109.475 5.11 110.755 5.46 111.895 6.16C113.055 6.86 113.965 7.86 114.625 9.16C115.305 10.44 115.645 11.93 115.645 13.63C115.645 15.33 115.305 16.84 114.625 18.16C113.965 19.46 113.055 20.47 111.895 21.19C110.755 21.91 109.475 22.27 108.055 22.27C106.835 22.27 105.755 22.02 104.815 21.52C103.895 21.02 103.145 20.39 102.565 19.63V29.92H98.3649V5.38H102.565V7.78ZM111.355 13.63C111.355 12.63 111.145 11.77 110.725 11.05C110.325 10.31 109.785 9.75 109.105 9.37C108.445 8.99 107.725 8.8 106.945 8.8C106.185 8.8 105.465 9 104.785 9.4C104.125 9.78 103.585 10.34 103.165 11.08C102.765 11.82 102.565 12.69 102.565 13.69C102.565 14.69 102.765 15.56 103.165 16.3C103.585 17.04 104.125 17.61 104.785 18.01C105.465 18.39 106.185 18.58 106.945 18.58C107.725 18.58 108.445 18.38 109.105 17.98C109.785 17.58 110.325 17.01 110.725 16.27C111.145 15.53 111.355 14.65 111.355 13.63Z" fill="black"/>
</svg>
